#!OML:ASF F:\VICON\USERDATA\INSTALL\rory3\rory3.ASF
:FULLY-SPECIFIED
:DEGREES
441
root -3.12511 15.7752 -34.121 193.622 18.2199 -545.479
lowerback -5.5233 2.28023 -0.623325
upperback -5.71101 3.46736 -2.88737
thorax -2.65512 1.89535 -2.5259
lowerneck -16.275 -3.18332 -6.48139
upperneck 23.6991 -3.53863 5.90105
head 10.5171 -1.22919 2.76486
rclavicle -6.07986e-014 -8.05078e-015
rhumerus -32.1056 -2.45538 -85.7797
rradius 25.6149
rwrist 5.41563
rhand -23.9979 -52.0331
rfingers 7.12502
rthumb 2.47942 -81.9984
lclavicle -6.07986e-014 -8.05078e-015
lhumerus -33.1192 -4.7015 75.7029
lradius 32.5236
lwrist 10.3559
lhand -36.8391 329.214
lfingers 7.12502
lthumb -9.91939 -1.03946
rfemur -46.6826 2.43564 18.2823
rtibia 93.8358
rfoot -8.94134 -11.5497
rtoes -19.9398
lfemur -40.9836 3.13861 -33.0455
ltibia 61.7503
lfoot -32.5857 8.94093
ltoes -1.64147
442
root -3.09282 15.8336 -34.3023 193.567 17.9041 -545.074
lowerback -6.30418 2.25222 0.0250696
upperback -5.22654 3.38673 -2.7869
thorax -1.69154 1.8265 -2.72696
lowerneck -15.0308 -2.76559 -7.06774
upperneck 22.2869 -3.09804 6.82644
head 9.76282 -1.01155 3.22499
rclavicle 6.66177e-014 5.96354e-015
rhumerus -32.1005 -3.00037 -84.9519
rradius 25.2724
rwrist 4.91813
rhand -24.229 -51.2696
rfingers 7.12502
rthumb 2.25619 -81.2374
lclavicle 6.66177e-014 5.96354e-015
lhumerus -31.4425 -5.08149 76.081
lradius 33.3284
lwrist 10.8291
lhand -37.0491 329.231
lfingers 7.12502
lthumb -10.122 -1.03199
rfemur -47.3999 2.5409 18.4817
rtibia 93.1294
rfoot -10.1041 -13.1315
rtoes -18.3573
lfemur -39.5417 3.02747 -32.5558
ltibia 61.0766
lfoot -33.0335 9.06238
ltoes 2.28259
443
root -3.06127 15.918 -34.5226 193.509 17.6982 -544.97
lowerback -8.24402 2.2849 0.569755
upperback -4.25923 3.3773 -2.79891
thorax 0.410023 1.8062 -2.91742
lowerneck -16.1032 -2.89212 -6.79565
upperneck 22.3119 -3.25606 6.47162
head 9.97682 -1.10952 3.02685
rclavicle -2.19191e-014 -1.0635e-014
rhumerus -31.4418 -3.72955 -84.0418
rradius 24.8326
rwrist 5.19409
rhand -23.8076 -50.9363
rfingers 7.12502
rthumb 2.66316 -80.8994
lclavicle -2.19191e-014 -1.0635e-014
lhumerus -28.9695 -5.70238 76.595
lradius 33.6371
lwrist 11.8949
lhand -37.7063 328.336
lfingers 7.12502
lthumb -10.7559 -1.95981
rfemur -47.903 2.49276 18.1454
rtibia 92.2332
rfoot -11.8279 -14.2256
rtoes -14.5889
lfemur -37.9855 2.81732 -32.4186
ltibia 60.3509
lfoot -33.4194 8.76222
ltoes -0.638915
444
root -3.02591 15.9342 -34.6016 193.628 17.0353 -544.694
lowerback -6.65634 1.97963 0.536192
upperback -4.94849 2.9802 -2.60624
thorax -1.21273 1.60545 -2.82262
lowerneck -16.2491 -3.00052 -6.51047
upperneck 22.9575 -3.37718 6.15607
head 10.2351 -1.15515 2.86506
rclavicle -1.1486e-014 -3.25013e-014
rhumerus -32.6447 -3.99801 -83.2238
rradius 24.9088
rwrist 6.09461
rhand -21.5651 -52.7084
rfingers 7.12502
rthumb 4.82871 -82.6334
lclavicle -1.1486e-014 -3.25013e-014
lhumerus -28.6312 -6.34133 77.1025
lradius 34.6293
lwrist 12.8208
lhand -38.5162 326.876
lfingers 7.12502
lthumb -11.5371 -3.46159
rfemur -49.9627 2.44119 18.5149
rtibia 91.7881
rfoot -12.315 -15.7629
rtoes -11.8226
lfemur -37.3432 2.4736 -31.9292
ltibia 59.8141
lfoot -32.1312 9.01599
ltoes 3.31476
445
root -2.9629 15.9436 -34.697 193.61 17.1765 -545.104
lowerback -4.92631 1.7365 -0.828884
upperback -5.95643 2.73994 -2.45487
thorax -3.30096 1.54472 -2.02421
lowerneck -14.0201 -2.54812 -7.23722
upperneck 22.0696 -2.87102 7.27825
head 9.48517 -0.86943 3.44029
rclavicle 6.67435e-014 -4.31363e-014
rhumerus -34.2635 -3.72297 -82.6392
rradius 24.7032
rwrist 5.87654
rhand -21.9403 -52.8406
rfingers 7.12502
rthumb 4.46645 -82.7735
lclavicle 6.67435e-014 -4.31363e-014
lhumerus -28.9706 -7.14284 77.6955
lradius 35.6432
lwrist 13.8144
lhand -38.672 326.097
lfingers 7.12502
lthumb -11.6874 -4.24859
rfemur -52.1898 3.15658 18.1454
rtibia 91.256
rfoot -12.1756 -17.5776
rtoes -10.7756
lfemur -37.1506 2.56845 -32.108
ltibia 59.2871
lfoot -31.5471 9.07766
ltoes 4.45517
446
root -2.91929 16.0315 -34.9433 193.916 16.9162 -544.3
lowerback -7.14358 1.7391 0.191288
upperback -5.16415 2.70356 -2.22758
thorax -1.21334 1.48987 -2.24247
lowerneck -16.8841 -3.03159 -5.94518
upperneck 23.7817 -3.39236 5.58725
head 10.6372 -1.15416 2.57855
rclavicle -4.95812e-014 2.28602e-015
rhumerus -33.8825 -3.60272 -82.2545
rradius 24.7278
rwrist 5.74855
rhand -22.1597 -52.5311
rfingers 7.12502
rthumb 4.25459 -82.4684
lclavicle -4.95812e-014 2.28602e-015
lhumerus -27.1962 -7.47941 78.0592
lradius 36.4891
lwrist 14.5558
lhand -38.1106 327.413
lfingers 7.12502
lthumb -11.1459 -2.90285
rfemur -52.3053 3.35094 18.6565
rtibia 89.6228
rfoot -12.8346 -19.0929
rtoes -10.4612
lfemur -35.5388 2.66366 -31.3258
ltibia 58.6728
lfoot -31.9052 8.68857
ltoes 4.41212
